<svg xmlns="http://www.w3.org/2000/svg" width="26.564" height="26.564" viewBox="0 0 26.564 26.564">
  <g id="back-button-svgrepo-com" transform="translate(-0.002)">
    <path id="Path_10" data-name="Path 10" d="M13.284,26.564A13.282,13.282,0,1,0,0,13.282,13.3,13.3,0,0,0,13.284,26.564Zm0-24.746A11.464,11.464,0,1,1,1.82,13.282,11.477,11.477,0,0,1,13.284,1.818Z" fill="#fff"/>
    <path id="Path_11" data-name="Path 11" d="M56.348,72.094a.909.909,0,1,0,1.285-1.286L54.14,67.315H64.256a.909.909,0,0,0,0-1.818H54.14L57.634,62a.909.909,0,0,0-1.286-1.286L51.3,65.763a.909.909,0,0,0,0,1.286Z" transform="translate(-44.848 -53.123)" fill="#fff"/>
  </g>
</svg>
