<svg xmlns="http://www.w3.org/2000/svg" width="17.497" height="19.997" viewBox="0 0 17.497 19.997">
  <path id="Font_Awesome_5_regular_calendar-alt" d="M5.78,11.248H4.218a.47.47,0,0,1-.469-.469V9.217a.47.47,0,0,1,.469-.469H5.78a.47.47,0,0,1,.469.469v1.562A.47.47,0,0,1,5.78,11.248ZM10,10.779V9.217a.47.47,0,0,0-.469-.469H7.967a.47.47,0,0,0-.469.469v1.562a.47.47,0,0,0,.469.469H9.53A.47.47,0,0,0,10,10.779Zm3.749,0V9.217a.47.47,0,0,0-.469-.469H11.717a.47.47,0,0,0-.469.469v1.562a.47.47,0,0,0,.469.469h1.562A.47.47,0,0,0,13.748,10.779ZM10,14.529V12.967A.47.47,0,0,0,9.53,12.5H7.967a.47.47,0,0,0-.469.469v1.562A.47.47,0,0,0,7.967,15H9.53A.47.47,0,0,0,10,14.529Zm-3.749,0V12.967A.47.47,0,0,0,5.78,12.5H4.218a.47.47,0,0,0-.469.469v1.562A.47.47,0,0,0,4.218,15H5.78A.47.47,0,0,0,6.249,14.529Zm7.5,0V12.967a.47.47,0,0,0-.469-.469H11.717a.47.47,0,0,0-.469.469v1.562a.47.47,0,0,0,.469.469h1.562A.47.47,0,0,0,13.748,14.529ZM17.5,4.374V18.122A1.875,1.875,0,0,1,15.622,20H1.875A1.875,1.875,0,0,1,0,18.122V4.374A1.875,1.875,0,0,1,1.875,2.5H3.749V.469A.47.47,0,0,1,4.218,0H5.78a.47.47,0,0,1,.469.469V2.5h5V.469A.47.47,0,0,1,11.717,0h1.562a.47.47,0,0,1,.469.469V2.5h1.875A1.875,1.875,0,0,1,17.5,4.374ZM15.622,17.888V6.249H1.875V17.888a.235.235,0,0,0,.234.234H15.388A.235.235,0,0,0,15.622,17.888Z" fill="#fff"/>
</svg>
