<svg xmlns="http://www.w3.org/2000/svg" width="13.377" height="20.535" viewBox="0 0 13.377 20.535">
  <path id="rocket-launch-svgrepo-com" d="M85.243,12.478,83.1,11.107V4.286a2.284,2.284,0,0,0-.625-1.569l-1.893-2a2.284,2.284,0,0,0-3.32,0l-1.893,2a2.284,2.284,0,0,0-.625,1.569v6.82L72.6,12.478a.8.8,0,0,0-.367.67v2.2a.8.8,0,0,0,.8.8h2.833a4.923,4.923,0,0,0-.029.525c0,2.084,2.357,3.573,2.626,3.736a.893.893,0,0,0,.925,0c.269-.163,2.626-1.652,2.626-3.736a4.921,4.921,0,0,0-.029-.525h2.833a.8.8,0,0,0,.8-.8v-2.2A.8.8,0,0,0,85.243,12.478ZM78.921,4.112a1.98,1.98,0,1,1-1.98,1.98A1.98,1.98,0,0,1,78.921,4.112Zm1.3,12.558c0,.693-.741,1.436-1.3,1.88-.562-.445-1.3-1.188-1.3-1.88a3.083,3.083,0,0,1,.045-.525h2.517A3.082,3.082,0,0,1,80.224,16.67Z" transform="translate(85.609 20.535) rotate(180)" fill="#fff"/>
</svg>
