<svg xmlns="http://www.w3.org/2000/svg" width="19.293" height="20.166" viewBox="0 0 19.293 20.166">
  <path id="work-order-type-svgrepo-com" d="M20.792,14.544a.906.906,0,0,1-.875.875H9.42a.906.906,0,0,1-.875-.875v-.875a.906.906,0,0,1,.875-.875H19.964a.906.906,0,0,1,.875.875v.875Zm-1.75,5.249a.906.906,0,0,1-.875.875H9.42a.906.906,0,0,1-.875-.875v-.875a.906.906,0,0,1,.875-.875h8.794a.906.906,0,0,1,.875.875v.875ZM8.545,8.374A.906.906,0,0,1,9.42,7.5h8.794a.906.906,0,0,1,.875.875v.875a.906.906,0,0,1-.875.875H9.42a.906.906,0,0,1-.875-.875S8.545,8.374,8.545,8.374ZM21.667,4h-14A2.663,2.663,0,0,0,5,6.624V21.542a2.653,2.653,0,0,0,2.624,2.624H21.667a2.653,2.653,0,0,0,2.624-2.624V6.624A2.594,2.594,0,0,0,21.667,4Z" transform="translate(-5 -4)" fill="#fff"/>
</svg>
