<svg xmlns="http://www.w3.org/2000/svg" width="19.292" height="14.634" viewBox="0 0 19.292 14.634">
  <g id="manufacturer-svgrepo-com" transform="translate(0 -62.671)">
    <path id="Path_19" data-name="Path 19" d="M.232,64.05H3.176a.234.234,0,0,0,.232-.236v-.906a.234.234,0,0,0-.232-.236H.232A.234.234,0,0,0,0,62.907v.906A.234.234,0,0,0,.232,64.05Z" fill="#fff"/>
    <path id="Path_20" data-name="Path 20" d="M19.161,119.483a.285.285,0,0,0-.275-.023L14.1,121.6V119.73a.3.3,0,0,0-.131-.247.285.285,0,0,0-.275-.023L8.906,121.6V119.73a.3.3,0,0,0-.131-.247.285.285,0,0,0-.275-.023l-5.092,2.279v-3.612a.234.234,0,0,0-.232-.236H.232a.234.234,0,0,0-.232.236v11.621a.555.555,0,0,0,.55.56H19a.293.293,0,0,0,.29-.3V119.73A.3.3,0,0,0,19.161,119.483ZM6.948,126.728a.274.274,0,0,1-.272.277H5.363a.274.274,0,0,1-.272-.277v-2.216a.274.274,0,0,1,.272-.277H6.676a.274.274,0,0,1,.272.277Zm5.193,0a.274.274,0,0,1-.272.277H10.556a.274.274,0,0,1-.272-.277v-2.216a.274.274,0,0,1,.272-.277h1.313a.274.274,0,0,1,.272.277Zm5.193,0a.274.274,0,0,1-.272.277H15.749a.274.274,0,0,1-.272-.277v-2.216a.274.274,0,0,1,.272-.277h1.313a.274.274,0,0,1,.272.277Z" transform="translate(0 -53.003)" fill="#fff"/>
  </g>
</svg>
