<svg xmlns="http://www.w3.org/2000/svg" width="19.293" height="19.293" viewBox="0 0 19.293 19.293">
  <path id="number-svgrepo-com" d="M163.083,150.553a.21.21,0,0,0,.21-.21v-1.573a.21.21,0,0,0-.21-.21h-4.3V144.21a.21.21,0,0,0-.21-.21H156.9a.21.21,0,0,0-.21.21v4.351H150.71V144.21a.21.21,0,0,0-.21-.21h-1.678a.21.21,0,0,0-.21.21v4.351h-4.4a.21.21,0,0,0-.21.21v1.573a.21.21,0,0,0,.21.21h4.4v6.186h-4.4a.21.21,0,0,0-.21.21v1.573a.21.21,0,0,0,.21.21h4.4v4.351a.21.21,0,0,0,.21.21H150.5a.21.21,0,0,0,.21-.21v-4.351h5.977v4.351a.21.21,0,0,0,.21.21h1.678a.21.21,0,0,0,.21-.21v-4.351h4.3a.21.21,0,0,0,.21-.21v-1.573a.21.21,0,0,0-.21-.21h-4.3v-6.186Zm-6.4,6.186H150.71v-6.186h5.977Z" transform="translate(-144 -144)" fill="#fff"/>
</svg>
