<svg id="rocket-3431" xmlns="http://www.w3.org/2000/svg" width="20.542" height="20.5" viewBox="0 0 20.542 20.5">
  <g id="Group_4" data-name="Group 4">
    <path id="Path_9" data-name="Path 9" d="M20.527,1.529c0-.061,0-.122-.006-.183s0-.136-.008-.2C20.505,1,20.5.866,20.485.728a.457.457,0,0,0-.417-.417C19.929.3,19.792.29,19.655.283L19.447.275,19.268.269c-.1,0-.2,0-.3,0h-.05a11.487,11.487,0,0,0-5.6,1.49l-.1.052-.034.018-.007.005A20.933,20.933,0,0,0,8.645,5.388c-.176.176-.348.354-.518.533l-3,.228a.457.457,0,0,0-.242.092L.168,9.828a.457.457,0,0,0,.235.818l4.422.4,1.4,1.4a3.011,3.011,0,0,0-1.435.824,3.163,3.163,0,0,0-.62.868c-.2.422-.637,1.509-1.1,2.659l-.226.561a.456.456,0,0,0,.594.594l.581-.234c1.141-.46,2.219-.894,2.642-1.093a3.165,3.165,0,0,0,.865-.619,3.009,3.009,0,0,0,.824-1.435l1.359,1.359.4,4.422a.457.457,0,0,0,.818.235l3.586-4.712a.457.457,0,0,0,.092-.242l.222-2.916q.293-.278.581-.565a20.934,20.934,0,0,0,3.559-4.539l0,0,.012-.022c.038-.069.074-.137.111-.206a11.459,11.459,0,0,0,1.437-5.5c0-.019,0-.038,0-.057Q20.53,1.677,20.527,1.529ZM14.691,8.8a1.907,1.907,0,0,1-2.7-2.7h0a1.907,1.907,0,1,1,2.7,2.7Z" transform="translate(0.012 -0.266)" fill="#fff"/>
  </g>
</svg>
