<svg xmlns="http://www.w3.org/2000/svg" width="19.993" height="20.002" viewBox="0 0 19.993 20.002">
  <g id="satellite-svgrepo-com" transform="translate(-0.065)">
    <g id="Group_29" data-name="Group 29" transform="translate(12.635 0.944)">
      <path id="Path_12" data-name="Path 12" d="M187.469,49.455a2.163,2.163,0,0,1,2.16,2.161.675.675,0,0,0,1.351,0,3.516,3.516,0,0,0-3.51-3.512h0a.675.675,0,0,0,0,1.351Z" transform="translate(-186.794 -45.81)" fill="#fff"/>
      <path id="Path_13" data-name="Path 13" d="M187.468,15.379a4.459,4.459,0,0,1,4.453,4.455.675.675,0,0,0,1.351,0,5.812,5.812,0,0,0-5.8-5.806.675.675,0,1,0,0,1.351Z" transform="translate(-186.793 -14.028)" fill="#fff"/>
    </g>
    <g id="Group_30" data-name="Group 30" transform="translate(0.065)">
      <path id="Path_14" data-name="Path 14" d="M105.691,103.834a2.3,2.3,0,0,0,0-3.248l-.143-.143a2.3,2.3,0,0,0-3.247,0l-1.837,1.838a2.3,2.3,0,0,0,0,3.248l.143.143a2.3,2.3,0,0,0,3.247,0Z" transform="translate(-93.081 -93.057)" fill="#fff"/>
      <path id="Path_15" data-name="Path 15" d="M6.684,8.461,8.521,6.623a3.345,3.345,0,0,1,1.939-.957l-.6-1.8A.675.675,0,0,0,9.7,3.6L6.3.2a.676.676,0,0,0-.955,0L.263,5.285a.675.675,0,0,0,0,.955l3.4,3.4a.677.677,0,0,0,.265.164l1.8.6A3.36,3.36,0,0,1,6.684,8.461Z" transform="translate(-0.065)" fill="#fff"/>
      <path id="Path_16" data-name="Path 16" d="M152.836,146.806l-3.4-3.4a.676.676,0,0,0-.265-.164l-1.8-.6a3.36,3.36,0,0,1-.957,1.939l-1.837,1.838a3.345,3.345,0,0,1-1.939.957l.6,1.8a.676.676,0,0,0,.164.265l3.4,3.4a.675.675,0,0,0,.955,0l5.084-5.087A.676.676,0,0,0,152.836,146.806Z" transform="translate(-133.04 -133.043)" fill="#fff"/>
    </g>
  </g>
</svg>
