<svg xmlns="http://www.w3.org/2000/svg" width="189.436" height="23.319" viewBox="0 0 189.436 23.319">
  <g id="SpaceX-Logo" transform="translate(0)">
    <path id="Path_1" data-name="Path 1" d="M64.822,15.094H48.8l-.593.444v14.25h4.434V24.444l.423-.379H64.822c2.968,0,4.359-.8,4.359-2.847V17.945c0-2.052-1.391-2.851-4.36-2.851m0,5.268c0,.965-.639,1.166-2.03,1.166H53.116l-.472-.459V18.016l.423-.387h9.725c1.391,0,2.03.2,2.03,1.168Z" transform="translate(-20.672 -6.472)" fill="#fff"/>
    <path id="Path_2" data-name="Path 2" d="M93.835,17.653l3.816,5.59-.211.542H89l-2.154,2.65H99.408l.871.53,1.95,2.69H107.3L96.18,14.775" transform="translate(-37.24 -6.335)" fill="#fff"/>
    <path id="Path_3" data-name="Path 3" d="M184.033,30.6V26.647l.456-.394h8.489V23.734H179.524V33.5h19.847V30.989H184.509" transform="translate(-76.979 -10.177)" fill="#fff"/>
    <rect id="Rectangle_2" data-name="Rectangle 2" width="20.057" height="2.769" transform="translate(102.545 8.622)" fill="#fff"/>
    <path id="Path_4" data-name="Path 4" d="M136.618,17.715h16.158c-.249-2.055-1.524-2.625-4.758-2.625H136.447c-3.649,0-4.814.712-4.814,3.474v7.748c0,2.765,1.164,3.477,4.814,3.477h11.572c3.282,0,4.538-.616,4.624-2.747H136.618l-.475-.447V18.014" transform="translate(-56.444 -6.471)" fill="#fff"/>
    <path id="Path_5" data-name="Path 5" d="M16.755,20.818H5l-.346-.381V17.923L5,17.657H20.845l.216-.53c-.54-1.389-1.938-2.036-4.533-2.036H5.521c-3.647,0-4.813.712-4.813,3.474V20.19c0,2.765,1.166,3.476,4.813,3.476H17.249l.368.323v2.629l-.3.41H3.9v-.013H.387s-.4.2-.387.3c.3,1.932,1.616,2.479,4.767,2.479H16.755c3.647,0,4.847-.712,4.847-3.477V24.29c0-2.76-1.2-3.471-4.847-3.471" transform="translate(0 -6.471)" fill="#fff"/>
    <path id="Path_6" data-name="Path 6" d="M231.5,14.988h-6.6l-.358.681,7.327,5.341c1.388-.8,2.9-1.618,4.541-2.422" transform="translate(-96.285 -6.427)" fill="#fff"/>
    <path id="Path_7" data-name="Path 7" d="M247.075,30.378l6.44,4.7h6.678l.276-.622-9.617-7.039q-1.916,1.406-3.779,2.965" transform="translate(-105.945 -11.755)" fill="#fff"/>
    <path id="Path_8" data-name="Path 8" d="M230.146,23.309h-5.97l-.5-.79C227.731,18.6,245.885,1.8,285.346,0c0,0-33.122,1.117-55.2,23.309" transform="translate(-95.91)" fill="#fff"/>
  </g>
</svg>
